<svg preserveAspectRatio="none" overflow="visible" style="display: block;" width="14.4853" height="16.0004" viewBox="0 0 14.4853 16.0004" fill="none" xmlns="http://www.w3.org/2000/svg">
<g id="Group">
<path id="Vector" d="M6.82711 12.8653C6.88155 12.9201 6.9463 12.9636 7.01762 12.9933C7.08894 13.023 7.16542 13.0383 7.24267 13.0383C7.31991 13.0383 7.3964 13.023 7.46772 12.9933C7.53903 12.9636 7.60378 12.9201 7.65822 12.8653L12.0867 8.436C12.1412 8.38149 12.1844 8.31677 12.2139 8.24555C12.2434 8.17432 12.2586 8.09798 12.2586 8.02089C12.2586 7.9438 12.2434 7.86746 12.2139 7.79623C12.1844 7.72501 12.1412 7.66029 12.0867 7.60578C12.0322 7.55126 11.9674 7.50802 11.8962 7.47852C11.825 7.44902 11.7486 7.43383 11.6716 7.43383C11.5945 7.43383 11.5181 7.44902 11.4469 7.47852C11.3757 7.50802 11.311 7.55126 11.2564 7.60578L7.82978 11.0316V0.587111C7.82978 0.4314 7.76792 0.282066 7.65782 0.171961C7.54771 0.0618562 7.39838 0 7.24267 0C7.08696 0 6.93762 0.0618562 6.82752 0.171961C6.71741 0.282066 6.65555 0.4314 6.65555 0.587111V11.0316L3.22889 7.60578C3.17438 7.55126 3.10966 7.50802 3.03843 7.47852C2.96721 7.44902 2.89087 7.43383 2.81378 7.43383C2.73668 7.43383 2.66035 7.44902 2.58912 7.47852C2.5179 7.50802 2.45318 7.55126 2.39867 7.60578C2.34415 7.66029 2.30091 7.72501 2.27141 7.79623C2.24191 7.86746 2.22672 7.9438 2.22672 8.02089C2.22672 8.09798 2.24191 8.17432 2.27141 8.24555C2.30091 8.31677 2.34415 8.38149 2.39867 8.436L6.82711 12.8653ZM13.8982 14.8262H0.587111C0.4314 14.8262 0.282066 14.8881 0.171961 14.9982C0.0618562 15.1083 0 15.2576 0 15.4133C0 15.569 0.0618562 15.7184 0.171961 15.8285C0.282066 15.9386 0.4314 16.0004 0.587111 16.0004H13.8982C14.0539 16.0004 14.2033 15.9386 14.3134 15.8285C14.4235 15.7184 14.4853 15.569 14.4853 15.4133C14.4853 15.2576 14.4235 15.1083 14.3134 14.9982C14.2033 14.8881 14.0539 14.8262 13.8982 14.8262Z" fill="#F7F4BE"/>
</g>
</svg>
